#!OML:ASF F:\VICON\USERDATA\INSTALL\rory3\rory3.ASF
:FULLY-SPECIFIED
:DEGREES
888
root 3.02139 16.7618 0.0887771 16.1108 4.77811 10.7179
lowerback -6.20967 1.93025 0.968101
upperback -2.52771 2.65833 -7.19896
thorax 1.25376 1.32829 -7.89294
lowerneck -2.31219 14.4771 5.19688
upperneck 48.0196 24.0444 -1.3015
head 20.2517 10.5553 2.53047
rclavicle 1.78906e-014 6.75868e-015
rhumerus -37.1681 3.73573 -93.0752
rradius 42.5517
rwrist -38.958
rhand -7.32396 -52.4206
rfingers 7.12502
rthumb 18.5592 -81.5553
lclavicle 1.78906e-014 6.75868e-015
lhumerus -27.9284 -20.6837 82.2666
lradius 41.1488
lwrist 73.8907
lhand -38.3951 -13.3642
lfingers 7.12502
lthumb -11.4203 16.3048
rfemur -51.696 24.065 -6.6624
rtibia 74.0967
rfoot 4.76697 9.39781
rtoes -37.9671
lfemur -32.6434 -7.138 -36.0318
ltibia 38.3795
lfoot -17.398 10.8307
ltoes 6.86134
889
root 3.02029 16.7554 0.0860411 16.1435 4.78696 10.7276
lowerback -6.16876 1.94511 0.967858
upperback -2.56588 2.67572 -7.22364
thorax 1.1949 1.33521 -7.92001
lowerneck -2.30121 14.4643 5.28415
upperneck 48.0522 24.0299 -1.31752
head 20.2943 10.5595 2.51363
rclavicle -8.94531e-016 4.29375e-014
rhumerus -37.2491 3.5912 -93.0662
rradius 42.6086
rwrist -38.8396
rhand -7.33403 -52.4339
rfingers 7.12502
rthumb 18.5495 -81.5695
lclavicle -8.94531e-016 4.29375e-014
lhumerus -27.959 -20.7453 82.2541
lradius 41.1853
lwrist 73.9479
lhand -38.3908 -13.268
lfingers 7.12502
lthumb -11.4161 16.4012
rfemur -51.7362 24.0388 -6.66833
rtibia 74.1226
rfoot 4.6416 9.41276
rtoes -38.5194
lfemur -32.6336 -7.13022 -36.049
ltibia 38.3309
lfoot -17.3109 10.9121
ltoes 6.03709
890
root 3.01547 16.7241 0.0821746 16.1923 4.79633 10.7511
lowerback -6.12823 1.95078 0.94969
upperback -2.60549 2.68125 -7.23212
thorax 1.1315 1.33599 -7.92002
lowerneck -2.30592 14.4645 5.34037
upperneck 48.0739 24.0515 -1.35715
head 20.3362 10.57 2.49781
rclavicle 4.85532e-014 -1.51076e-014
rhumerus -37.3098 3.50588 -93.0375
rradius 42.6559
rwrist -38.7648
rhand -7.3431 -52.5299
rfingers 7.12502
rthumb 18.5408 -81.6663
lclavicle 4.85532e-014 -1.51076e-014
lhumerus -27.9661 -20.7912 82.2839
lradius 41.2237
lwrist 74.031
lhand -38.1146 -13.4298
lfingers 7.12502
lthumb -11.1498 16.254
rfemur -51.26 23.8213 -6.43011
rtibia 74.0662
rfoot 1.83111 10.2186
rtoes -45.6284
lfemur -32.7448 -7.174 -36.0458
ltibia 38.25
lfoot -17.215 10.7944
ltoes 6.89515
891
root 3.02309 16.7639 0.0821469 16.2203 4.8559 10.8085
lowerback -6.14351 1.92104 0.919843
upperback -2.60714 2.6435 -7.23759
thorax 1.13177 1.31698 -7.91126
lowerneck -2.28884 14.4767 5.35361
upperneck 48.0338 24.0897 -1.41718
head 20.3246 10.5831 2.47211
rclavicle 2.98177e-014 -6.63941e-014
rhumerus -37.2903 3.55939 -93.039
rradius 42.6432
rwrist -38.8004
rhand -7.4219 -52.5238
rfingers 7.12502
rthumb 18.465 -81.6675
lclavicle 2.98177e-014 -6.63941e-014
lhumerus -27.9673 -20.7618 82.2959
lradius 41.2733
lwrist 74.0382
lhand -37.8521 -13.6609
lfingers 7.12502
lthumb -10.8966 16.0364
rfemur -51.7645 23.9965 -6.78617
rtibia 74.1183
rfoot 4.66833 9.40425
rtoes -38.6498
lfemur -32.6554 -7.25429 -36.0832
ltibia 38.0906
lfoot -17.2774 10.6151
ltoes 7.98262
892
root 3.02711 16.7746 0.0827143 16.1942 4.89499 10.8054
lowerback -6.05459 1.90638 0.960064
upperback -2.65815 2.61619 -7.23932
thorax 1.02695 1.29982 -7.94229
lowerneck -2.21472 14.4851 5.37166
upperneck 48.066 24.0943 -1.38497
head 20.3236 10.5948 2.47881
rclavicle 8.49804e-015 5.64548e-014
rhumerus -37.3773 3.55149 -93.0571
rradius 42.6189
rwrist -38.7891
rhand -7.52111 -52.3728
rfingers 7.12502
rthumb 18.3696 -81.5254
lclavicle 8.49804e-015 5.64548e-014
lhumerus -28.0754 -20.7582 82.3228
lradius 41.3063
lwrist 74.0231
lhand -38.03 -13.5969
lfingers 7.12502
lthumb -11.0682 16.0912
rfemur -51.8695 24.0535 -6.84826
rtibia 74.1415
rfoot 5.24399 9.16121
rtoes -36.8821
lfemur -32.4982 -7.25679 -36.0973
ltibia 37.9978
lfoot -17.3204 10.6251
ltoes 7.41882
893
root 3.02641 16.7733 0.0844855 16.1518 4.87727 10.7055
lowerback -5.97395 1.92038 1.03926
upperback -2.71583 2.62457 -7.21039
thorax 0.925282 1.30032 -7.95973
lowerneck -2.09584 14.4798 5.40837
upperneck 48.0846 24.0785 -1.37166
head 20.3086 10.6028 2.4647
rclavicle -1.64494e-014 6.75868e-014
rhumerus -37.5281 3.51816 -93.0787
rradius 42.6566
rwrist -38.7229
rhand -7.58033 -52.2384
rfingers 7.12502
rthumb 18.3126 -81.3965
lclavicle -1.64494e-014 6.75868e-014
lhumerus -28.233 -20.794 82.3728
lradius 41.3532
lwrist 74.0757
lhand -38.6372 -13.3526
lfingers 7.12502
lthumb -11.6538 16.3033
rfemur -51.8644 24.1929 -6.74748
rtibia 74.1542
rfoot 5.33296 8.9969
rtoes -36.3532
lfemur -32.3283 -7.21465 -36.0061
ltibia 37.79
lfoot -17.1833 10.7095
ltoes 6.6784
894
root 3.02453 16.7741 0.0845746 16.1531 4.88665 10.6345
lowerback -6.11538 1.92056 1.07176
upperback -2.63503 2.63043 -7.16921
thorax 1.08858 1.30821 -7.92794
lowerneck -2.16309 14.4799 5.35632
upperneck 48.0458 24.0837 -1.39319
head 20.2934 10.592 2.46646
rclavicle -4.01048e-014 8.82604e-014
rhumerus -37.3975 3.5652 -93.0618
rradius 42.6262
rwrist -38.5801
rhand -8.16967 -51.9177
rfingers 7.12502
rthumb 17.7456 -81.128
lclavicle -4.01048e-014 8.82604e-014
lhumerus -28.1082 -20.7886 82.3564
lradius 41.3695
lwrist 74.1319
lhand -38.8071 -13.39
lfingers 7.12502
lthumb -11.8176 16.2565
rfemur -51.8856 24.2617 -6.68603
rtibia 74.1371
rfoot 5.38102 8.91402
rtoes -35.9207
lfemur -32.3303 -7.21546 -35.9144
ltibia 37.7452
lfoot -17.1219 10.6986
ltoes 6.78866
895
root 3.0237 16.7737 0.0835542 16.1722 4.9001 10.6778
lowerback -6.47402 1.91587 1.03502
upperback -2.40102 2.64906 -7.16963
thorax 1.53319 1.3319 -7.89174
lowerneck -2.40456 14.489 5.26551
upperneck 47.9529 24.0941 -1.42176
head 20.2786 10.5676 2.48655
rclavicle 8.94531e-015 -5.96354e-015
rhumerus -36.9916 3.61778 -93.027
rradius 42.5141
rwrist -38.4402
rhand -8.7785 -51.5119
rfingers 7.12502
rthumb 17.1596 -80.7741
lclavicle 8.94531e-015 -5.96354e-015
lhumerus -27.6846 -20.7436 82.2421
lradius 41.2943
lwrist 74.0543
lhand -38.0953 -13.8868
lfingers 7.12502
lthumb -11.1312 15.798
rfemur -51.8949 24.1908 -6.7248
rtibia 74.1237
rfoot 5.25398 9.14481
rtoes -36.6857
lfemur -32.3827 -7.23687 -35.9519
ltibia 37.8183
lfoot -17.1364 10.7118
ltoes 6.73846
896
root 3.02354 16.7764 0.0840441 16.1823 4.87728 10.7119
lowerback -6.2709 1.92536 0.990608
upperback -2.58794 2.64886 -7.18721
thorax 1.22432 1.32164 -7.89342
lowerneck -2.11722 14.4762 5.37599
upperneck 47.9499 24.0758 -1.45186
head 20.2303 10.5942 2.42306
rclavicle -3.96078e-014 3.49861e-014
rhumerus -37.3467 3.60881 -93.0947
rradius 42.5756
rwrist -38.5763
rhand -8.52469 -51.5258
rfingers 7.12502
rthumb 17.4039 -80.7667
lclavicle -3.96078e-014 3.49861e-014
lhumerus -28.041 -20.8103 82.3576
lradius 41.2696
lwrist 74.0317
lhand -37.5006 -14.2141
lfingers 7.12502
lthumb -10.5575 15.5007
rfemur -51.8759 24.1817 -6.75978
rtibia 74.0831
rfoot 5.12376 9.33557
rtoes -37.4988
lfemur -32.5193 -7.22519 -35.9763
ltibia 38.026
lfoot -17.3193 10.5844
ltoes 7.6785
897
root 3.02189 16.769 0.083967 16.1582 4.88467 10.6502
lowerback -6.41514 1.91996 1.03311
upperback -2.46745 2.64875 -7.14718
thorax 1.43008 1.32811 -7.86879
lowerneck -2.10987 14.4864 5.41662
upperneck 47.7876 24.1345 -1.64547
head 20.1763 10.609 2.33107
rclavicle 2.37548e-014 -4.09496e-014
rhumerus -37.1859 3.71404 -93.1169
rradius 42.6141
rwrist -38.7599
rhand -8.25952 -51.6449
rfingers 7.12502
rthumb 17.6591 -80.8629
lclavicle 2.37548e-014 -4.09496e-014
lhumerus -27.8304 -20.8334 82.3233
lradius 41.1981
lwrist 74.1707
lhand -37.0252 -14.1639
lfingers 7.12502
lthumb -10.099 15.5737
rfemur -51.6828 24.1635 -6.60745
rtibia 74.0376
rfoot 4.66786 9.40664
rtoes -38.8696
lfemur -32.5911 -7.21356 -35.8914
ltibia 38.1236
lfoot -17.474 10.4038
ltoes 8.81142
898
root 3.01882 16.7364 0.0820189 16.1028 4.91764 10.574
lowerback -6.56049 1.90968 1.13079
upperback -2.30249 2.64078 -7.10749
thorax 1.68403 1.33265 -7.8771
lowerneck -2.26022 14.5091 5.36864
upperneck 47.6429 24.1962 -1.76669
head 20.1387 10.6091 2.3013
rclavicle -4.42793e-014 6.32135e-014
rhumerus -36.9106 3.84458 -93.1232
rradius 42.5314
rwrist -38.8438
rhand -8.03529 -52.0481
rfingers 7.12502
rthumb 17.8749 -81.2466
lclavicle -4.42793e-014 6.32135e-014
lhumerus -27.5408 -20.8019 82.2557
lradius 41.1581
lwrist 74.2225
lhand -36.7707 -13.9283
lfingers 7.12502
lthumb -9.85343 15.8211
rfemur -51.1867 24.0406 -6.2954
rtibia 73.9783
rfoot 2.78274 9.90518
rtoes -43.7166
lfemur -32.5977 -7.20673 -35.8287
ltibia 38.2144
lfoot -17.4244 10.532
ltoes 8.00778
899
root 3.02472 16.763 0.0818272 16.0928 4.92351 10.6019
lowerback -6.57895 1.91555 1.1408
upperback -2.29346 2.64961 -7.12678
thorax 1.70635 1.3379 -7.90255
lowerneck -2.31194 14.5147 5.32348
upperneck 47.5846 24.205 -1.77771
head 20.1042 10.6052 2.30426
rclavicle 1.89839e-014 8.66701e-014
rhumerus -36.879 3.90413 -93.1635
rradius 42.4044
rwrist -38.9803
rhand -7.69649 -52.3974
rfingers 7.12502
rthumb 18.2009 -81.5658
lclavicle 1.89839e-014 8.66701e-014
lhumerus -27.5656 -20.7768 82.2529
lradius 41.2218
lwrist 74.1879
lhand -37.1571 -13.6631
lfingers 7.12502
lthumb -10.2262 16.0683
rfemur -51.6374 24.2506 -6.5748
rtibia 74.0514
rfoot 4.93138 9.07341
rtoes -37.5747
lfemur -32.4588 -7.19683 -35.8958
ltibia 38.1083
lfoot -17.2878 10.7243
ltoes 6.82678
900
root 3.02427 16.7727 0.0795239 16.127 4.9087 10.6831
lowerback -6.53018 1.91972 1.02779
upperback -2.37172 2.65732 -7.14957
thorax 1.59497 1.33787 -7.86301
lowerneck -2.27207 14.4997 5.26459
upperneck 47.6506 24.1457 -1.64927
head 20.0892 10.5891 2.35516
rclavicle -1.03368e-014 4.77083e-015
rhumerus -37.0317 3.88467 -93.1773
rradius 42.43
rwrist -38.9718
rhand -7.98598 -51.8267
rfingers 7.12502
rthumb 17.9223 -81.0209
lclavicle -1.03368e-014 4.77083e-015
lhumerus -27.6947 -20.8486 82.3092
lradius 41.2493
lwrist 74.2315
lhand -37.4738 -13.6427
lfingers 7.12502
lthumb -10.5318 16.0734
rfemur -51.864 24.3141 -6.79333
rtibia 74.0829
rfoot 5.59591 8.72713
rtoes -35.2434
lfemur -32.4322 -7.18498 -35.9814
ltibia 38.0101
lfoot -17.2226 10.732
ltoes 6.43402
901
root 3.02258 16.7722 0.0753612 16.1155 4.84562 10.7062
lowerback -6.46976 1.92301 0.952904
upperback -2.3767 2.66393 -7.1393
thorax 1.55329 1.34015 -7.80914
lowerneck -2.29169 14.5079 5.23332
upperneck 47.6946 24.1391 -1.58073
head 20.1003 10.5864 2.39287
rclavicle 5.41688e-015 -2.90226e-014
rhumerus -37.0644 3.90153 -93.1602
rradius 42.5471
rwrist -38.8918
rhand -8.33004 -51.4923
rfingers 7.12502
rthumb 17.5912 -80.7165
lclavicle 5.41688e-015 -2.90226e-014
lhumerus -27.6715 -20.8719 82.323
lradius 41.1987
lwrist 74.304
lhand -37.2766 -13.7882
lfingers 7.12502
lthumb -10.3415 15.9375
rfemur -51.9492 24.3327 -6.85632
rtibia 74.1081
rfoot 5.71604 8.82016
rtoes -35.2163
lfemur -32.3606 -7.16779 -35.9987
ltibia 37.8336
lfoot -17.1255 10.7032
ltoes 6.42749
902
root 3.02383 16.775 0.0725867 16.0854 4.79223 10.71
lowerback -6.46948 1.94395 0.973027
upperback -2.36725 2.69164 -7.15113
thorax 1.56841 1.3547 -7.83116
lowerneck -2.17202 14.5039 5.36764
upperneck 47.681 24.1564 -1.68033
head 20.1157 10.6091 2.32354
rclavicle -3.55825e-014 2.22639e-014
rhumerus -37.0641 3.93696 -93.1759
rradius 42.582
rwrist -38.9582
rhand -8.24129 -51.8
rfingers 7.12502
rthumb 17.6767 -81.0165
lclavicle -3.55825e-014 2.22639e-014
lhumerus -27.7087 -20.8551 82.3145
lradius 41.2106
lwrist 74.2695
lhand -36.9817 -13.9605
lfingers 7.12502
lthumb -10.057 15.7792
rfemur -51.9148 24.3217 -6.85374
rtibia 74.0906
rfoot 5.61828 9.04815
rtoes -35.7587
lfemur -32.3507 -7.21687 -35.9855
ltibia 37.7878
lfoot -17.1537 10.6268
ltoes 7.65467
